<?xml version="1.0" encoding="utf-8" standalone="no"?>
<!DOCTYPE svg PUBLIC "-//W3C//DTD SVG 1.1//EN"
  "http://www.w3.org/Graphics/SVG/1.1/DTD/svg11.dtd">
<!-- Created with matplotlib (http://matplotlib.org/) -->
<svg height="288pt" version="1.1" viewBox="0 0 432 288" width="432pt" xmlns="http://www.w3.org/2000/svg" xmlns:xlink="http://www.w3.org/1999/xlink">
 <defs>
  <style type="text/css">
*{stroke-linecap:butt;stroke-linejoin:round;}
  </style>
 </defs>
 <g id="figure_1">
  <g id="patch_1">
   <path d="M 0 288 
L 432 288 
L 432 0 
L 0 0 
z
" style="fill:#ffffff;"/>
  </g>
  <g id="axes_1">
   <g id="patch_2">
    <path d="M 46.675 257.2 
L 417.7 257.2 
L 417.7 26.8 
L 46.675 26.8 
z
" style="fill:#ffffff;"/>
   </g>
   <g id="PolyCollection_1">
    <path clip-path="url(#p3b67b9b344)" d="M 66.912727 209.868061 
L 66.912727 221.442062 
L 70.285682 224.236583 
L 73.658636 225.667582 
L 77.031591 226.754402 
L 80.404545 227.719563 
L 83.7775 228.611643 
L 87.150455 229.440049 
L 90.523409 230.219479 
L 93.896364 230.942899 
L 97.269318 231.617916 
L 100.642273 232.233072 
L 104.015227 232.807673 
L 107.388182 233.368112 
L 110.761136 233.916013 
L 114.134091 234.437202 
L 117.507045 234.939501 
L 120.88 235.422077 
L 124.252955 235.890827 
L 127.625909 236.351127 
L 130.998864 236.788785 
L 134.371818 237.217934 
L 137.744773 237.637448 
L 141.117727 238.036733 
L 144.490682 238.405345 
L 147.863636 238.760391 
L 151.236591 239.119189 
L 154.609545 239.479381 
L 157.9825 239.829192 
L 161.355455 240.161662 
L 164.728409 240.476416 
L 168.101364 240.777992 
L 171.474318 241.077828 
L 174.847273 241.358808 
L 178.220227 241.635601 
L 181.593182 241.914391 
L 184.966136 242.176633 
L 188.339091 242.41318 
L 191.712045 242.633427 
L 195.085 242.858897 
L 198.457955 243.077215 
L 201.830909 243.279723 
L 205.203864 243.470815 
L 208.576818 243.657273 
L 211.949773 243.837487 
L 215.322727 244.011829 
L 218.695682 244.175043 
L 222.068636 244.326583 
L 225.441591 244.475584 
L 228.814545 244.61789 
L 232.1875 244.75112 
L 235.560455 244.881909 
L 238.933409 245.010567 
L 242.306364 245.138873 
L 245.679318 245.259546 
L 249.052273 245.374372 
L 252.425227 245.484036 
L 255.798182 245.579254 
L 259.171136 245.663623 
L 262.544091 245.747557 
L 265.917045 245.833552 
L 269.29 245.914526 
L 272.662955 245.991709 
L 276.035909 246.068977 
L 279.408864 246.140732 
L 282.781818 246.20257 
L 286.154773 246.252601 
L 289.527727 246.301155 
L 292.900682 246.347565 
L 296.273636 246.390452 
L 299.646591 246.426617 
L 303.019545 246.458459 
L 306.3925 246.49036 
L 309.765455 246.521322 
L 313.138409 246.552409 
L 316.511364 246.581599 
L 319.884318 246.604629 
L 323.257273 246.623602 
L 326.630227 246.642425 
L 330.003182 246.658096 
L 333.376136 246.669348 
L 336.749091 246.677439 
L 340.122045 246.683823 
L 343.495 246.688567 
L 346.867955 246.69255 
L 350.240909 246.696043 
L 353.613864 246.697863 
L 356.986818 246.699306 
L 360.359773 246.700331 
L 363.732727 246.700822 
L 367.105682 246.701048 
L 370.478636 246.701052 
L 373.851591 246.701173 
L 377.224545 246.701356 
L 380.5975 246.701841 
L 383.970455 246.702713 
L 387.343409 246.704363 
L 390.716364 246.707771 
L 394.089318 246.712331 
L 397.462273 246.71936 
L 400.835227 246.727273 
L 400.835227 184.58285 
L 400.835227 184.58285 
L 397.462273 184.590763 
L 394.089318 184.597792 
L 390.716364 184.602351 
L 387.343409 184.605759 
L 383.970455 184.607409 
L 380.5975 184.608282 
L 377.224545 184.608767 
L 373.851591 184.608949 
L 370.478636 184.609071 
L 367.105682 184.609075 
L 363.732727 184.6093 
L 360.359773 184.609792 
L 356.986818 184.610816 
L 353.613864 184.612259 
L 350.240909 184.614079 
L 346.867955 184.617573 
L 343.495 184.621556 
L 340.122045 184.6263 
L 336.749091 184.632684 
L 333.376136 184.640775 
L 330.003182 184.652026 
L 326.630227 184.667697 
L 323.257273 184.686521 
L 319.884318 184.705494 
L 316.511364 184.728523 
L 313.138409 184.757714 
L 309.765455 184.7888 
L 306.3925 184.819762 
L 303.019545 184.851663 
L 299.646591 184.883505 
L 296.273636 184.919671 
L 292.900682 184.962558 
L 289.527727 185.008968 
L 286.154773 185.057522 
L 282.781818 185.107552 
L 279.408864 185.16939 
L 276.035909 185.241146 
L 272.662955 185.318414 
L 269.29 185.395596 
L 265.917045 185.47657 
L 262.544091 185.562566 
L 259.171136 185.646499 
L 255.798182 185.730869 
L 252.425227 185.826086 
L 249.052273 185.935751 
L 245.679318 186.050576 
L 242.306364 186.17125 
L 238.933409 186.299555 
L 235.560455 186.428214 
L 232.1875 186.559002 
L 228.814545 186.692232 
L 225.441591 186.834539 
L 222.068636 186.98354 
L 218.695682 187.135079 
L 215.322727 187.298294 
L 211.949773 187.472636 
L 208.576818 187.652849 
L 205.203864 187.839308 
L 201.830909 188.0304 
L 198.457955 188.232907 
L 195.085 188.451226 
L 191.712045 188.676696 
L 188.339091 188.896942 
L 184.966136 189.13349 
L 181.593182 189.395732 
L 178.220227 189.674521 
L 174.847273 189.951314 
L 171.474318 190.232294 
L 168.101364 190.53213 
L 164.728409 190.833706 
L 161.355455 191.148461 
L 157.9825 191.48093 
L 154.609545 191.830741 
L 151.236591 192.190933 
L 147.863636 192.549731 
L 144.490682 192.904778 
L 141.117727 193.27339 
L 137.744773 193.672675 
L 134.371818 194.092188 
L 130.998864 194.521338 
L 127.625909 194.958995 
L 124.252955 195.419295 
L 120.88 195.888046 
L 117.507045 196.370621 
L 114.134091 196.87292 
L 110.761136 197.39411 
L 107.388182 197.942011 
L 104.015227 198.50245 
L 100.642273 199.07705 
L 97.269318 199.692206 
L 93.896364 200.367223 
L 90.523409 201.090644 
L 87.150455 201.870074 
L 83.7775 202.698479 
L 80.404545 203.59056 
L 77.031591 204.555721 
L 73.658636 205.64254 
L 70.285682 207.073539 
L 66.912727 209.868061 
z
" style="fill:#1f77b4;fill-opacity:0.25;"/>
   </g>
   <g id="matplotlib.axis_1">
    <g id="xtick_1">
     <g id="line2d_1">
      <defs>
       <path d="M 0 0 
L 0 3.5 
" id="m9eadcf3f6b" style="stroke:#000000;stroke-width:0.8;"/>
      </defs>
      <g>
       <use style="stroke:#000000;stroke-width:0.8;" x="63.539773" xlink:href="#m9eadcf3f6b" y="257.2"/>
      </g>
     </g>
     <g id="text_1">
      <!-- 0 -->
      <defs>
       <path d="M 31.78125 66.40625 
Q 24.171875 66.40625 20.328125 58.90625 
Q 16.5 51.421875 16.5 36.375 
Q 16.5 21.390625 20.328125 13.890625 
Q 24.171875 6.390625 31.78125 6.390625 
Q 39.453125 6.390625 43.28125 13.890625 
Q 47.125 21.390625 47.125 36.375 
Q 47.125 51.421875 43.28125 58.90625 
Q 39.453125 66.40625 31.78125 66.40625 
z
M 31.78125 74.21875 
Q 44.046875 74.21875 50.515625 64.515625 
Q 56.984375 54.828125 56.984375 36.375 
Q 56.984375 17.96875 50.515625 8.265625 
Q 44.046875 -1.421875 31.78125 -1.421875 
Q 19.53125 -1.421875 13.0625 8.265625 
Q 6.59375 17.96875 6.59375 36.375 
Q 6.59375 54.828125 13.0625 64.515625 
Q 19.53125 74.21875 31.78125 74.21875 
z
" id="DejaVuSans-30"/>
      </defs>
      <g transform="translate(59.722273 273.318125)scale(0.12 -0.12)">
       <use xlink:href="#DejaVuSans-30"/>
      </g>
     </g>
    </g>
    <g id="xtick_2">
     <g id="line2d_2">
      <g>
       <use style="stroke:#000000;stroke-width:0.8;" x="130.998864" xlink:href="#m9eadcf3f6b" y="257.2"/>
      </g>
     </g>
     <g id="text_2">
      <!-- 20 -->
      <defs>
       <path d="M 19.1875 8.296875 
L 53.609375 8.296875 
L 53.609375 0 
L 7.328125 0 
L 7.328125 8.296875 
Q 12.9375 14.109375 22.625 23.890625 
Q 32.328125 33.6875 34.8125 36.53125 
Q 39.546875 41.84375 41.421875 45.53125 
Q 43.3125 49.21875 43.3125 52.78125 
Q 43.3125 58.59375 39.234375 62.25 
Q 35.15625 65.921875 28.609375 65.921875 
Q 23.96875 65.921875 18.8125 64.3125 
Q 13.671875 62.703125 7.8125 59.421875 
L 7.8125 69.390625 
Q 13.765625 71.78125 18.9375 73 
Q 24.125 74.21875 28.421875 74.21875 
Q 39.75 74.21875 46.484375 68.546875 
Q 53.21875 62.890625 53.21875 53.421875 
Q 53.21875 48.921875 51.53125 44.890625 
Q 49.859375 40.875 45.40625 35.40625 
Q 44.1875 33.984375 37.640625 27.21875 
Q 31.109375 20.453125 19.1875 8.296875 
z
" id="DejaVuSans-32"/>
      </defs>
      <g transform="translate(123.363864 273.318125)scale(0.12 -0.12)">
       <use xlink:href="#DejaVuSans-32"/>
       <use x="63.623047" xlink:href="#DejaVuSans-30"/>
      </g>
     </g>
    </g>
    <g id="xtick_3">
     <g id="line2d_3">
      <g>
       <use style="stroke:#000000;stroke-width:0.8;" x="198.457955" xlink:href="#m9eadcf3f6b" y="257.2"/>
      </g>
     </g>
     <g id="text_3">
      <!-- 40 -->
      <defs>
       <path d="M 37.796875 64.3125 
L 12.890625 25.390625 
L 37.796875 25.390625 
z
M 35.203125 72.90625 
L 47.609375 72.90625 
L 47.609375 25.390625 
L 58.015625 25.390625 
L 58.015625 17.1875 
L 47.609375 17.1875 
L 47.609375 0 
L 37.796875 0 
L 37.796875 17.1875 
L 4.890625 17.1875 
L 4.890625 26.703125 
z
" id="DejaVuSans-34"/>
      </defs>
      <g transform="translate(190.822955 273.318125)scale(0.12 -0.12)">
       <use xlink:href="#DejaVuSans-34"/>
       <use x="63.623047" xlink:href="#DejaVuSans-30"/>
      </g>
     </g>
    </g>
    <g id="xtick_4">
     <g id="line2d_4">
      <g>
       <use style="stroke:#000000;stroke-width:0.8;" x="265.917045" xlink:href="#m9eadcf3f6b" y="257.2"/>
      </g>
     </g>
     <g id="text_4">
      <!-- 60 -->
      <defs>
       <path d="M 33.015625 40.375 
Q 26.375 40.375 22.484375 35.828125 
Q 18.609375 31.296875 18.609375 23.390625 
Q 18.609375 15.53125 22.484375 10.953125 
Q 26.375 6.390625 33.015625 6.390625 
Q 39.65625 6.390625 43.53125 10.953125 
Q 47.40625 15.53125 47.40625 23.390625 
Q 47.40625 31.296875 43.53125 35.828125 
Q 39.65625 40.375 33.015625 40.375 
z
M 52.59375 71.296875 
L 52.59375 62.3125 
Q 48.875 64.0625 45.09375 64.984375 
Q 41.3125 65.921875 37.59375 65.921875 
Q 27.828125 65.921875 22.671875 59.328125 
Q 17.53125 52.734375 16.796875 39.40625 
Q 19.671875 43.65625 24.015625 45.921875 
Q 28.375 48.1875 33.59375 48.1875 
Q 44.578125 48.1875 50.953125 41.515625 
Q 57.328125 34.859375 57.328125 23.390625 
Q 57.328125 12.15625 50.6875 5.359375 
Q 44.046875 -1.421875 33.015625 -1.421875 
Q 20.359375 -1.421875 13.671875 8.265625 
Q 6.984375 17.96875 6.984375 36.375 
Q 6.984375 53.65625 15.1875 63.9375 
Q 23.390625 74.21875 37.203125 74.21875 
Q 40.921875 74.21875 44.703125 73.484375 
Q 48.484375 72.75 52.59375 71.296875 
z
" id="DejaVuSans-36"/>
      </defs>
      <g transform="translate(258.282045 273.318125)scale(0.12 -0.12)">
       <use xlink:href="#DejaVuSans-36"/>
       <use x="63.623047" xlink:href="#DejaVuSans-30"/>
      </g>
     </g>
    </g>
    <g id="xtick_5">
     <g id="line2d_5">
      <g>
       <use style="stroke:#000000;stroke-width:0.8;" x="333.376136" xlink:href="#m9eadcf3f6b" y="257.2"/>
      </g>
     </g>
     <g id="text_5">
      <!-- 80 -->
      <defs>
       <path d="M 31.78125 34.625 
Q 24.75 34.625 20.71875 30.859375 
Q 16.703125 27.09375 16.703125 20.515625 
Q 16.703125 13.921875 20.71875 10.15625 
Q 24.75 6.390625 31.78125 6.390625 
Q 38.8125 6.390625 42.859375 10.171875 
Q 46.921875 13.96875 46.921875 20.515625 
Q 46.921875 27.09375 42.890625 30.859375 
Q 38.875 34.625 31.78125 34.625 
z
M 21.921875 38.8125 
Q 15.578125 40.375 12.03125 44.71875 
Q 8.5 49.078125 8.5 55.328125 
Q 8.5 64.0625 14.71875 69.140625 
Q 20.953125 74.21875 31.78125 74.21875 
Q 42.671875 74.21875 48.875 69.140625 
Q 55.078125 64.0625 55.078125 55.328125 
Q 55.078125 49.078125 51.53125 44.71875 
Q 48 40.375 41.703125 38.8125 
Q 48.828125 37.15625 52.796875 32.3125 
Q 56.78125 27.484375 56.78125 20.515625 
Q 56.78125 9.90625 50.3125 4.234375 
Q 43.84375 -1.421875 31.78125 -1.421875 
Q 19.734375 -1.421875 13.25 4.234375 
Q 6.78125 9.90625 6.78125 20.515625 
Q 6.78125 27.484375 10.78125 32.3125 
Q 14.796875 37.15625 21.921875 38.8125 
z
M 18.3125 54.390625 
Q 18.3125 48.734375 21.84375 45.5625 
Q 25.390625 42.390625 31.78125 42.390625 
Q 38.140625 42.390625 41.71875 45.5625 
Q 45.3125 48.734375 45.3125 54.390625 
Q 45.3125 60.0625 41.71875 63.234375 
Q 38.140625 66.40625 31.78125 66.40625 
Q 25.390625 66.40625 21.84375 63.234375 
Q 18.3125 60.0625 18.3125 54.390625 
z
" id="DejaVuSans-38"/>
      </defs>
      <g transform="translate(325.741136 273.318125)scale(0.12 -0.12)">
       <use xlink:href="#DejaVuSans-38"/>
       <use x="63.623047" xlink:href="#DejaVuSans-30"/>
      </g>
     </g>
    </g>
    <g id="xtick_6">
     <g id="line2d_6">
      <g>
       <use style="stroke:#000000;stroke-width:0.8;" x="400.835227" xlink:href="#m9eadcf3f6b" y="257.2"/>
      </g>
     </g>
     <g id="text_6">
      <!-- 100 -->
      <defs>
       <path d="M 12.40625 8.296875 
L 28.515625 8.296875 
L 28.515625 63.921875 
L 10.984375 60.40625 
L 10.984375 69.390625 
L 28.421875 72.90625 
L 38.28125 72.90625 
L 38.28125 8.296875 
L 54.390625 8.296875 
L 54.390625 0 
L 12.40625 0 
z
" id="DejaVuSans-31"/>
      </defs>
      <g transform="translate(389.382727 273.318125)scale(0.12 -0.12)">
       <use xlink:href="#DejaVuSans-31"/>
       <use x="63.623047" xlink:href="#DejaVuSans-30"/>
       <use x="127.246094" xlink:href="#DejaVuSans-30"/>
      </g>
     </g>
    </g>
   </g>
   <g id="matplotlib.axis_2">
    <g id="ytick_1">
     <g id="line2d_7">
      <defs>
       <path d="M 0 0 
L -3.5 0 
" id="m4863d170f8" style="stroke:#000000;stroke-width:0.8;"/>
      </defs>
      <g>
       <use style="stroke:#000000;stroke-width:0.8;" x="46.675" xlink:href="#m4863d170f8" y="251.331528"/>
      </g>
     </g>
     <g id="text_7">
      <!-- −0.2 -->
      <defs>
       <path d="M 10.59375 35.5 
L 73.1875 35.5 
L 73.1875 27.203125 
L 10.59375 27.203125 
z
" id="DejaVuSans-2212"/>
       <path d="M 10.6875 12.40625 
L 21 12.40625 
L 21 0 
L 10.6875 0 
z
" id="DejaVuSans-2e"/>
      </defs>
      <g transform="translate(10.535625 255.890591)scale(0.12 -0.12)">
       <use xlink:href="#DejaVuSans-2212"/>
       <use x="83.789062" xlink:href="#DejaVuSans-30"/>
       <use x="147.412109" xlink:href="#DejaVuSans-2e"/>
       <use x="179.199219" xlink:href="#DejaVuSans-32"/>
      </g>
     </g>
    </g>
    <g id="ytick_2">
     <g id="line2d_8">
      <g>
       <use style="stroke:#000000;stroke-width:0.8;" x="46.675" xlink:href="#m4863d170f8" y="215.655061"/>
      </g>
     </g>
     <g id="text_8">
      <!-- 0.0 -->
      <g transform="translate(20.59125 220.214124)scale(0.12 -0.12)">
       <use xlink:href="#DejaVuSans-30"/>
       <use x="63.623047" xlink:href="#DejaVuSans-2e"/>
       <use x="95.410156" xlink:href="#DejaVuSans-30"/>
      </g>
     </g>
    </g>
    <g id="ytick_3">
     <g id="line2d_9">
      <g>
       <use style="stroke:#000000;stroke-width:0.8;" x="46.675" xlink:href="#m4863d170f8" y="179.978595"/>
      </g>
     </g>
     <g id="text_9">
      <!-- 0.2 -->
      <g transform="translate(20.59125 184.537657)scale(0.12 -0.12)">
       <use xlink:href="#DejaVuSans-30"/>
       <use x="63.623047" xlink:href="#DejaVuSans-2e"/>
       <use x="95.410156" xlink:href="#DejaVuSans-32"/>
      </g>
     </g>
    </g>
    <g id="ytick_4">
     <g id="line2d_10">
      <g>
       <use style="stroke:#000000;stroke-width:0.8;" x="46.675" xlink:href="#m4863d170f8" y="144.302128"/>
      </g>
     </g>
     <g id="text_10">
      <!-- 0.4 -->
      <g transform="translate(20.59125 148.86119)scale(0.12 -0.12)">
       <use xlink:href="#DejaVuSans-30"/>
       <use x="63.623047" xlink:href="#DejaVuSans-2e"/>
       <use x="95.410156" xlink:href="#DejaVuSans-34"/>
      </g>
     </g>
    </g>
    <g id="ytick_5">
     <g id="line2d_11">
      <g>
       <use style="stroke:#000000;stroke-width:0.8;" x="46.675" xlink:href="#m4863d170f8" y="108.625661"/>
      </g>
     </g>
     <g id="text_11">
      <!-- 0.6 -->
      <g transform="translate(20.59125 113.184723)scale(0.12 -0.12)">
       <use xlink:href="#DejaVuSans-30"/>
       <use x="63.623047" xlink:href="#DejaVuSans-2e"/>
       <use x="95.410156" xlink:href="#DejaVuSans-36"/>
      </g>
     </g>
    </g>
    <g id="ytick_6">
     <g id="line2d_12">
      <g>
       <use style="stroke:#000000;stroke-width:0.8;" x="46.675" xlink:href="#m4863d170f8" y="72.949194"/>
      </g>
     </g>
     <g id="text_12">
      <!-- 0.8 -->
      <g transform="translate(20.59125 77.508257)scale(0.12 -0.12)">
       <use xlink:href="#DejaVuSans-30"/>
       <use x="63.623047" xlink:href="#DejaVuSans-2e"/>
       <use x="95.410156" xlink:href="#DejaVuSans-38"/>
      </g>
     </g>
    </g>
    <g id="ytick_7">
     <g id="line2d_13">
      <g>
       <use style="stroke:#000000;stroke-width:0.8;" x="46.675" xlink:href="#m4863d170f8" y="37.272727"/>
      </g>
     </g>
     <g id="text_13">
      <!-- 1.0 -->
      <g transform="translate(20.59125 41.83179)scale(0.12 -0.12)">
       <use xlink:href="#DejaVuSans-31"/>
       <use x="63.623047" xlink:href="#DejaVuSans-2e"/>
       <use x="95.410156" xlink:href="#DejaVuSans-30"/>
      </g>
     </g>
    </g>
   </g>
   <g id="LineCollection_1">
    <path clip-path="url(#p3b67b9b344)" d="M 63.539773 215.655061 
L 63.539773 37.272727 
" style="fill:none;stroke:#000000;stroke-width:1.5;"/>
    <path clip-path="url(#p3b67b9b344)" d="M 66.912727 215.655061 
L 66.912727 77.539328 
" style="fill:none;stroke:#000000;stroke-width:1.5;"/>
    <path clip-path="url(#p3b67b9b344)" d="M 70.285682 215.655061 
L 70.285682 103.223067 
" style="fill:none;stroke:#000000;stroke-width:1.5;"/>
    <path clip-path="url(#p3b67b9b344)" d="M 73.658636 215.655061 
L 73.658636 111.249109 
" style="fill:none;stroke:#000000;stroke-width:1.5;"/>
    <path clip-path="url(#p3b67b9b344)" d="M 77.031591 215.655061 
L 77.031591 112.59544 
" style="fill:none;stroke:#000000;stroke-width:1.5;"/>
    <path clip-path="url(#p3b67b9b344)" d="M 80.404545 215.655061 
L 80.404545 112.678484 
" style="fill:none;stroke:#000000;stroke-width:1.5;"/>
    <path clip-path="url(#p3b67b9b344)" d="M 83.7775 215.655061 
L 83.7775 113.066646 
" style="fill:none;stroke:#000000;stroke-width:1.5;"/>
    <path clip-path="url(#p3b67b9b344)" d="M 87.150455 215.655061 
L 87.150455 113.19753 
" style="fill:none;stroke:#000000;stroke-width:1.5;"/>
    <path clip-path="url(#p3b67b9b344)" d="M 90.523409 215.655061 
L 90.523409 114.364895 
" style="fill:none;stroke:#000000;stroke-width:1.5;"/>
    <path clip-path="url(#p3b67b9b344)" d="M 93.896364 215.655061 
L 93.896364 115.546662 
" style="fill:none;stroke:#000000;stroke-width:1.5;"/>
    <path clip-path="url(#p3b67b9b344)" d="M 97.269318 215.655061 
L 97.269318 118.135778 
" style="fill:none;stroke:#000000;stroke-width:1.5;"/>
    <path clip-path="url(#p3b67b9b344)" d="M 100.642273 215.655061 
L 100.642273 119.697655 
" style="fill:none;stroke:#000000;stroke-width:1.5;"/>
    <path clip-path="url(#p3b67b9b344)" d="M 104.015227 215.655061 
L 104.015227 119.306188 
" style="fill:none;stroke:#000000;stroke-width:1.5;"/>
    <path clip-path="url(#p3b67b9b344)" d="M 107.388182 215.655061 
L 107.388182 118.887772 
" style="fill:none;stroke:#000000;stroke-width:1.5;"/>
    <path clip-path="url(#p3b67b9b344)" d="M 110.761136 215.655061 
L 110.761136 119.883864 
" style="fill:none;stroke:#000000;stroke-width:1.5;"/>
    <path clip-path="url(#p3b67b9b344)" d="M 114.134091 215.655061 
L 114.134091 120.345529 
" style="fill:none;stroke:#000000;stroke-width:1.5;"/>
    <path clip-path="url(#p3b67b9b344)" d="M 117.507045 215.655061 
L 117.507045 121.034662 
" style="fill:none;stroke:#000000;stroke-width:1.5;"/>
    <path clip-path="url(#p3b67b9b344)" d="M 120.88 215.655061 
L 120.88 121.270889 
" style="fill:none;stroke:#000000;stroke-width:1.5;"/>
    <path clip-path="url(#p3b67b9b344)" d="M 124.252955 215.655061 
L 124.252955 121.045632 
" style="fill:none;stroke:#000000;stroke-width:1.5;"/>
    <path clip-path="url(#p3b67b9b344)" d="M 127.625909 215.655061 
L 127.625909 122.395471 
" style="fill:none;stroke:#000000;stroke-width:1.5;"/>
    <path clip-path="url(#p3b67b9b344)" d="M 130.998864 215.655061 
L 130.998864 122.354542 
" style="fill:none;stroke:#000000;stroke-width:1.5;"/>
    <path clip-path="url(#p3b67b9b344)" d="M 134.371818 215.655061 
L 134.371818 122.495638 
" style="fill:none;stroke:#000000;stroke-width:1.5;"/>
    <path clip-path="url(#p3b67b9b344)" d="M 137.744773 215.655061 
L 137.744773 123.918943 
" style="fill:none;stroke:#000000;stroke-width:1.5;"/>
    <path clip-path="url(#p3b67b9b344)" d="M 141.117727 215.655061 
L 141.117727 126.753329 
" style="fill:none;stroke:#000000;stroke-width:1.5;"/>
    <path clip-path="url(#p3b67b9b344)" d="M 144.490682 215.655061 
L 144.490682 127.707817 
" style="fill:none;stroke:#000000;stroke-width:1.5;"/>
    <path clip-path="url(#p3b67b9b344)" d="M 147.863636 215.655061 
L 147.863636 126.558917 
" style="fill:none;stroke:#000000;stroke-width:1.5;"/>
    <path clip-path="url(#p3b67b9b344)" d="M 151.236591 215.655061 
L 151.236591 125.699489 
" style="fill:none;stroke:#000000;stroke-width:1.5;"/>
    <path clip-path="url(#p3b67b9b344)" d="M 154.609545 215.655061 
L 154.609545 126.342285 
" style="fill:none;stroke:#000000;stroke-width:1.5;"/>
    <path clip-path="url(#p3b67b9b344)" d="M 157.9825 215.655061 
L 157.9825 127.967512 
" style="fill:none;stroke:#000000;stroke-width:1.5;"/>
    <path clip-path="url(#p3b67b9b344)" d="M 161.355455 215.655061 
L 161.355455 129.770378 
" style="fill:none;stroke:#000000;stroke-width:1.5;"/>
    <path clip-path="url(#p3b67b9b344)" d="M 164.728409 215.655061 
L 164.728409 131.063938 
" style="fill:none;stroke:#000000;stroke-width:1.5;"/>
    <path clip-path="url(#p3b67b9b344)" d="M 168.101364 215.655061 
L 168.101364 130.802056 
" style="fill:none;stroke:#000000;stroke-width:1.5;"/>
    <path clip-path="url(#p3b67b9b344)" d="M 171.474318 215.655061 
L 171.474318 133.042882 
" style="fill:none;stroke:#000000;stroke-width:1.5;"/>
    <path clip-path="url(#p3b67b9b344)" d="M 174.847273 215.655061 
L 174.847273 133.214623 
" style="fill:none;stroke:#000000;stroke-width:1.5;"/>
    <path clip-path="url(#p3b67b9b344)" d="M 178.220227 215.655061 
L 178.220227 132.474368 
" style="fill:none;stroke:#000000;stroke-width:1.5;"/>
    <path clip-path="url(#p3b67b9b344)" d="M 181.593182 215.655061 
L 181.593182 134.564071 
" style="fill:none;stroke:#000000;stroke-width:1.5;"/>
    <path clip-path="url(#p3b67b9b344)" d="M 184.966136 215.655061 
L 184.966136 138.275959 
" style="fill:none;stroke:#000000;stroke-width:1.5;"/>
    <path clip-path="url(#p3b67b9b344)" d="M 188.339091 215.655061 
L 188.339091 140.670371 
" style="fill:none;stroke:#000000;stroke-width:1.5;"/>
    <path clip-path="url(#p3b67b9b344)" d="M 191.712045 215.655061 
L 191.712045 139.472417 
" style="fill:none;stroke:#000000;stroke-width:1.5;"/>
    <path clip-path="url(#p3b67b9b344)" d="M 195.085 215.655061 
L 195.085 140.383986 
" style="fill:none;stroke:#000000;stroke-width:1.5;"/>
    <path clip-path="url(#p3b67b9b344)" d="M 198.457955 215.655061 
L 198.457955 142.882079 
" style="fill:none;stroke:#000000;stroke-width:1.5;"/>
    <path clip-path="url(#p3b67b9b344)" d="M 201.830909 215.655061 
L 201.830909 144.710721 
" style="fill:none;stroke:#000000;stroke-width:1.5;"/>
    <path clip-path="url(#p3b67b9b344)" d="M 205.203864 215.655061 
L 205.203864 145.337896 
" style="fill:none;stroke:#000000;stroke-width:1.5;"/>
    <path clip-path="url(#p3b67b9b344)" d="M 208.576818 215.655061 
L 208.576818 146.298808 
" style="fill:none;stroke:#000000;stroke-width:1.5;"/>
    <path clip-path="url(#p3b67b9b344)" d="M 211.949773 215.655061 
L 211.949773 147.223087 
" style="fill:none;stroke:#000000;stroke-width:1.5;"/>
    <path clip-path="url(#p3b67b9b344)" d="M 215.322727 215.655061 
L 215.322727 149.245556 
" style="fill:none;stroke:#000000;stroke-width:1.5;"/>
    <path clip-path="url(#p3b67b9b344)" d="M 218.695682 215.655061 
L 218.695682 151.487951 
" style="fill:none;stroke:#000000;stroke-width:1.5;"/>
    <path clip-path="url(#p3b67b9b344)" d="M 222.068636 215.655061 
L 222.068636 151.860778 
" style="fill:none;stroke:#000000;stroke-width:1.5;"/>
    <path clip-path="url(#p3b67b9b344)" d="M 225.441591 215.655061 
L 225.441591 153.15264 
" style="fill:none;stroke:#000000;stroke-width:1.5;"/>
    <path clip-path="url(#p3b67b9b344)" d="M 228.814545 215.655061 
L 228.814545 155.034676 
" style="fill:none;stroke:#000000;stroke-width:1.5;"/>
    <path clip-path="url(#p3b67b9b344)" d="M 232.1875 215.655061 
L 232.1875 155.456339 
" style="fill:none;stroke:#000000;stroke-width:1.5;"/>
    <path clip-path="url(#p3b67b9b344)" d="M 235.560455 215.655061 
L 235.560455 155.815825 
" style="fill:none;stroke:#000000;stroke-width:1.5;"/>
    <path clip-path="url(#p3b67b9b344)" d="M 238.933409 215.655061 
L 238.933409 155.767079 
" style="fill:none;stroke:#000000;stroke-width:1.5;"/>
    <path clip-path="url(#p3b67b9b344)" d="M 242.306364 215.655061 
L 242.306364 157.452723 
" style="fill:none;stroke:#000000;stroke-width:1.5;"/>
    <path clip-path="url(#p3b67b9b344)" d="M 245.679318 215.655061 
L 245.679318 158.767522 
" style="fill:none;stroke:#000000;stroke-width:1.5;"/>
    <path clip-path="url(#p3b67b9b344)" d="M 249.052273 215.655061 
L 249.052273 159.955579 
" style="fill:none;stroke:#000000;stroke-width:1.5;"/>
    <path clip-path="url(#p3b67b9b344)" d="M 252.425227 215.655061 
L 252.425227 163.664849 
" style="fill:none;stroke:#000000;stroke-width:1.5;"/>
    <path clip-path="url(#p3b67b9b344)" d="M 255.798182 215.655061 
L 255.798182 166.642354 
" style="fill:none;stroke:#000000;stroke-width:1.5;"/>
    <path clip-path="url(#p3b67b9b344)" d="M 259.171136 215.655061 
L 259.171136 166.700729 
" style="fill:none;stroke:#000000;stroke-width:1.5;"/>
    <path clip-path="url(#p3b67b9b344)" d="M 262.544091 215.655061 
L 262.544091 166.03282 
" style="fill:none;stroke:#000000;stroke-width:1.5;"/>
    <path clip-path="url(#p3b67b9b344)" d="M 265.917045 215.655061 
L 265.917045 167.436944 
" style="fill:none;stroke:#000000;stroke-width:1.5;"/>
    <path clip-path="url(#p3b67b9b344)" d="M 269.29 215.655061 
L 269.29 168.517674 
" style="fill:none;stroke:#000000;stroke-width:1.5;"/>
    <path clip-path="url(#p3b67b9b344)" d="M 272.662955 215.655061 
L 272.662955 168.431577 
" style="fill:none;stroke:#000000;stroke-width:1.5;"/>
    <path clip-path="url(#p3b67b9b344)" d="M 276.035909 215.655061 
L 276.035909 170.091448 
" style="fill:none;stroke:#000000;stroke-width:1.5;"/>
    <path clip-path="url(#p3b67b9b344)" d="M 279.408864 215.655061 
L 279.408864 173.310859 
" style="fill:none;stroke:#000000;stroke-width:1.5;"/>
    <path clip-path="url(#p3b67b9b344)" d="M 282.781818 215.655061 
L 282.781818 177.532571 
" style="fill:none;stroke:#000000;stroke-width:1.5;"/>
    <path clip-path="url(#p3b67b9b344)" d="M 286.154773 215.655061 
L 286.154773 178.068857 
" style="fill:none;stroke:#000000;stroke-width:1.5;"/>
    <path clip-path="url(#p3b67b9b344)" d="M 289.527727 215.655061 
L 289.527727 178.879925 
" style="fill:none;stroke:#000000;stroke-width:1.5;"/>
    <path clip-path="url(#p3b67b9b344)" d="M 292.900682 215.655061 
L 292.900682 180.27735 
" style="fill:none;stroke:#000000;stroke-width:1.5;"/>
    <path clip-path="url(#p3b67b9b344)" d="M 296.273636 215.655061 
L 296.273636 183.146924 
" style="fill:none;stroke:#000000;stroke-width:1.5;"/>
    <path clip-path="url(#p3b67b9b344)" d="M 299.646591 215.655061 
L 299.646591 185.135009 
" style="fill:none;stroke:#000000;stroke-width:1.5;"/>
    <path clip-path="url(#p3b67b9b344)" d="M 303.019545 215.655061 
L 303.019545 185.090898 
" style="fill:none;stroke:#000000;stroke-width:1.5;"/>
    <path clip-path="url(#p3b67b9b344)" d="M 306.3925 215.655061 
L 306.3925 185.528797 
" style="fill:none;stroke:#000000;stroke-width:1.5;"/>
    <path clip-path="url(#p3b67b9b344)" d="M 309.765455 215.655061 
L 309.765455 185.453009 
" style="fill:none;stroke:#000000;stroke-width:1.5;"/>
    <path clip-path="url(#p3b67b9b344)" d="M 313.138409 215.655061 
L 313.138409 186.37432 
" style="fill:none;stroke:#000000;stroke-width:1.5;"/>
    <path clip-path="url(#p3b67b9b344)" d="M 316.511364 215.655061 
L 316.511364 189.636316 
" style="fill:none;stroke:#000000;stroke-width:1.5;"/>
    <path clip-path="url(#p3b67b9b344)" d="M 319.884318 215.655061 
L 319.884318 192.03054 
" style="fill:none;stroke:#000000;stroke-width:1.5;"/>
    <path clip-path="url(#p3b67b9b344)" d="M 323.257273 215.655061 
L 323.257273 192.116801 
" style="fill:none;stroke:#000000;stroke-width:1.5;"/>
    <path clip-path="url(#p3b67b9b344)" d="M 326.630227 215.655061 
L 326.630227 194.17224 
" style="fill:none;stroke:#000000;stroke-width:1.5;"/>
    <path clip-path="url(#p3b67b9b344)" d="M 330.003182 215.655061 
L 330.003182 197.447625 
" style="fill:none;stroke:#000000;stroke-width:1.5;"/>
    <path clip-path="url(#p3b67b9b344)" d="M 333.376136 215.655061 
L 333.376136 200.213173 
" style="fill:none;stroke:#000000;stroke-width:1.5;"/>
    <path clip-path="url(#p3b67b9b344)" d="M 336.749091 215.655061 
L 336.749091 201.936082 
" style="fill:none;stroke:#000000;stroke-width:1.5;"/>
    <path clip-path="url(#p3b67b9b344)" d="M 340.122045 215.655061 
L 340.122045 203.828915 
" style="fill:none;stroke:#000000;stroke-width:1.5;"/>
    <path clip-path="url(#p3b67b9b344)" d="M 343.495 215.655061 
L 343.495 204.816786 
" style="fill:none;stroke:#000000;stroke-width:1.5;"/>
    <path clip-path="url(#p3b67b9b344)" d="M 346.867955 215.655061 
L 346.867955 205.504732 
" style="fill:none;stroke:#000000;stroke-width:1.5;"/>
    <path clip-path="url(#p3b67b9b344)" d="M 350.240909 215.655061 
L 350.240909 208.328821 
" style="fill:none;stroke:#000000;stroke-width:1.5;"/>
    <path clip-path="url(#p3b67b9b344)" d="M 353.613864 215.655061 
L 353.613864 209.130643 
" style="fill:none;stroke:#000000;stroke-width:1.5;"/>
    <path clip-path="url(#p3b67b9b344)" d="M 356.986818 215.655061 
L 356.986818 210.15807 
" style="fill:none;stroke:#000000;stroke-width:1.5;"/>
    <path clip-path="url(#p3b67b9b344)" d="M 360.359773 215.655061 
L 360.359773 211.8472 
" style="fill:none;stroke:#000000;stroke-width:1.5;"/>
    <path clip-path="url(#p3b67b9b344)" d="M 363.732727 215.655061 
L 363.732727 213.074883 
" style="fill:none;stroke:#000000;stroke-width:1.5;"/>
    <path clip-path="url(#p3b67b9b344)" d="M 367.105682 215.655061 
L 367.105682 215.320747 
" style="fill:none;stroke:#000000;stroke-width:1.5;"/>
    <path clip-path="url(#p3b67b9b344)" d="M 370.478636 215.655061 
L 370.478636 217.548134 
" style="fill:none;stroke:#000000;stroke-width:1.5;"/>
    <path clip-path="url(#p3b67b9b344)" d="M 373.851591 215.655061 
L 373.851591 217.975684 
" style="fill:none;stroke:#000000;stroke-width:1.5;"/>
    <path clip-path="url(#p3b67b9b344)" d="M 377.224545 215.655061 
L 377.224545 219.438021 
" style="fill:none;stroke:#000000;stroke-width:1.5;"/>
    <path clip-path="url(#p3b67b9b344)" d="M 380.5975 215.655061 
L 380.5975 220.727554 
" style="fill:none;stroke:#000000;stroke-width:1.5;"/>
    <path clip-path="url(#p3b67b9b344)" d="M 383.970455 215.655061 
L 383.970455 222.632243 
" style="fill:none;stroke:#000000;stroke-width:1.5;"/>
    <path clip-path="url(#p3b67b9b344)" d="M 387.343409 215.655061 
L 387.343409 225.682185 
" style="fill:none;stroke:#000000;stroke-width:1.5;"/>
    <path clip-path="url(#p3b67b9b344)" d="M 390.716364 215.655061 
L 390.716364 227.253936 
" style="fill:none;stroke:#000000;stroke-width:1.5;"/>
    <path clip-path="url(#p3b67b9b344)" d="M 394.089318 215.655061 
L 394.089318 230.058277 
" style="fill:none;stroke:#000000;stroke-width:1.5;"/>
    <path clip-path="url(#p3b67b9b344)" d="M 397.462273 215.655061 
L 397.462273 230.938608 
" style="fill:none;stroke:#000000;stroke-width:1.5;"/>
    <path clip-path="url(#p3b67b9b344)" d="M 400.835227 215.655061 
L 400.835227 233.457539 
" style="fill:none;stroke:#000000;stroke-width:1.5;"/>
   </g>
   <g id="line2d_14">
    <path clip-path="url(#p3b67b9b344)" d="M 46.675 215.655061 
L 417.7 215.655061 
" style="fill:none;stroke:#1f77b4;stroke-linecap:square;stroke-width:1.5;"/>
   </g>
   <g id="line2d_15">
    <defs>
     <path d="M 0 2.5 
C 0.663008 2.5 1.29895 2.236584 1.767767 1.767767 
C 2.236584 1.29895 2.5 0.663008 2.5 0 
C 2.5 -0.663008 2.236584 -1.29895 1.767767 -1.767767 
C 1.29895 -2.236584 0.663008 -2.5 0 -2.5 
C -0.663008 -2.5 -1.29895 -2.236584 -1.767767 -1.767767 
C -2.236584 -1.29895 -2.5 -0.663008 -2.5 0 
C -2.5 0.663008 -2.236584 1.29895 -1.767767 1.767767 
C -1.29895 2.236584 -0.663008 2.5 0 2.5 
z
" id="m39cfc74d00" style="stroke:#1f77b4;"/>
    </defs>
    <g clip-path="url(#p3b67b9b344)">
     <use style="fill:#1f77b4;stroke:#1f77b4;" x="63.539773" xlink:href="#m39cfc74d00" y="37.272727"/>
     <use style="fill:#1f77b4;stroke:#1f77b4;" x="66.912727" xlink:href="#m39cfc74d00" y="77.539328"/>
     <use style="fill:#1f77b4;stroke:#1f77b4;" x="70.285682" xlink:href="#m39cfc74d00" y="103.223067"/>
     <use style="fill:#1f77b4;stroke:#1f77b4;" x="73.658636" xlink:href="#m39cfc74d00" y="111.249109"/>
     <use style="fill:#1f77b4;stroke:#1f77b4;" x="77.031591" xlink:href="#m39cfc74d00" y="112.59544"/>
     <use style="fill:#1f77b4;stroke:#1f77b4;" x="80.404545" xlink:href="#m39cfc74d00" y="112.678484"/>
     <use style="fill:#1f77b4;stroke:#1f77b4;" x="83.7775" xlink:href="#m39cfc74d00" y="113.066646"/>
     <use style="fill:#1f77b4;stroke:#1f77b4;" x="87.150455" xlink:href="#m39cfc74d00" y="113.19753"/>
     <use style="fill:#1f77b4;stroke:#1f77b4;" x="90.523409" xlink:href="#m39cfc74d00" y="114.364895"/>
     <use style="fill:#1f77b4;stroke:#1f77b4;" x="93.896364" xlink:href="#m39cfc74d00" y="115.546662"/>
     <use style="fill:#1f77b4;stroke:#1f77b4;" x="97.269318" xlink:href="#m39cfc74d00" y="118.135778"/>
     <use style="fill:#1f77b4;stroke:#1f77b4;" x="100.642273" xlink:href="#m39cfc74d00" y="119.697655"/>
     <use style="fill:#1f77b4;stroke:#1f77b4;" x="104.015227" xlink:href="#m39cfc74d00" y="119.306188"/>
     <use style="fill:#1f77b4;stroke:#1f77b4;" x="107.388182" xlink:href="#m39cfc74d00" y="118.887772"/>
     <use style="fill:#1f77b4;stroke:#1f77b4;" x="110.761136" xlink:href="#m39cfc74d00" y="119.883864"/>
     <use style="fill:#1f77b4;stroke:#1f77b4;" x="114.134091" xlink:href="#m39cfc74d00" y="120.345529"/>
     <use style="fill:#1f77b4;stroke:#1f77b4;" x="117.507045" xlink:href="#m39cfc74d00" y="121.034662"/>
     <use style="fill:#1f77b4;stroke:#1f77b4;" x="120.88" xlink:href="#m39cfc74d00" y="121.270889"/>
     <use style="fill:#1f77b4;stroke:#1f77b4;" x="124.252955" xlink:href="#m39cfc74d00" y="121.045632"/>
     <use style="fill:#1f77b4;stroke:#1f77b4;" x="127.625909" xlink:href="#m39cfc74d00" y="122.395471"/>
     <use style="fill:#1f77b4;stroke:#1f77b4;" x="130.998864" xlink:href="#m39cfc74d00" y="122.354542"/>
     <use style="fill:#1f77b4;stroke:#1f77b4;" x="134.371818" xlink:href="#m39cfc74d00" y="122.495638"/>
     <use style="fill:#1f77b4;stroke:#1f77b4;" x="137.744773" xlink:href="#m39cfc74d00" y="123.918943"/>
     <use style="fill:#1f77b4;stroke:#1f77b4;" x="141.117727" xlink:href="#m39cfc74d00" y="126.753329"/>
     <use style="fill:#1f77b4;stroke:#1f77b4;" x="144.490682" xlink:href="#m39cfc74d00" y="127.707817"/>
     <use style="fill:#1f77b4;stroke:#1f77b4;" x="147.863636" xlink:href="#m39cfc74d00" y="126.558917"/>
     <use style="fill:#1f77b4;stroke:#1f77b4;" x="151.236591" xlink:href="#m39cfc74d00" y="125.699489"/>
     <use style="fill:#1f77b4;stroke:#1f77b4;" x="154.609545" xlink:href="#m39cfc74d00" y="126.342285"/>
     <use style="fill:#1f77b4;stroke:#1f77b4;" x="157.9825" xlink:href="#m39cfc74d00" y="127.967512"/>
     <use style="fill:#1f77b4;stroke:#1f77b4;" x="161.355455" xlink:href="#m39cfc74d00" y="129.770378"/>
     <use style="fill:#1f77b4;stroke:#1f77b4;" x="164.728409" xlink:href="#m39cfc74d00" y="131.063938"/>
     <use style="fill:#1f77b4;stroke:#1f77b4;" x="168.101364" xlink:href="#m39cfc74d00" y="130.802056"/>
     <use style="fill:#1f77b4;stroke:#1f77b4;" x="171.474318" xlink:href="#m39cfc74d00" y="133.042882"/>
     <use style="fill:#1f77b4;stroke:#1f77b4;" x="174.847273" xlink:href="#m39cfc74d00" y="133.214623"/>
     <use style="fill:#1f77b4;stroke:#1f77b4;" x="178.220227" xlink:href="#m39cfc74d00" y="132.474368"/>
     <use style="fill:#1f77b4;stroke:#1f77b4;" x="181.593182" xlink:href="#m39cfc74d00" y="134.564071"/>
     <use style="fill:#1f77b4;stroke:#1f77b4;" x="184.966136" xlink:href="#m39cfc74d00" y="138.275959"/>
     <use style="fill:#1f77b4;stroke:#1f77b4;" x="188.339091" xlink:href="#m39cfc74d00" y="140.670371"/>
     <use style="fill:#1f77b4;stroke:#1f77b4;" x="191.712045" xlink:href="#m39cfc74d00" y="139.472417"/>
     <use style="fill:#1f77b4;stroke:#1f77b4;" x="195.085" xlink:href="#m39cfc74d00" y="140.383986"/>
     <use style="fill:#1f77b4;stroke:#1f77b4;" x="198.457955" xlink:href="#m39cfc74d00" y="142.882079"/>
     <use style="fill:#1f77b4;stroke:#1f77b4;" x="201.830909" xlink:href="#m39cfc74d00" y="144.710721"/>
     <use style="fill:#1f77b4;stroke:#1f77b4;" x="205.203864" xlink:href="#m39cfc74d00" y="145.337896"/>
     <use style="fill:#1f77b4;stroke:#1f77b4;" x="208.576818" xlink:href="#m39cfc74d00" y="146.298808"/>
     <use style="fill:#1f77b4;stroke:#1f77b4;" x="211.949773" xlink:href="#m39cfc74d00" y="147.223087"/>
     <use style="fill:#1f77b4;stroke:#1f77b4;" x="215.322727" xlink:href="#m39cfc74d00" y="149.245556"/>
     <use style="fill:#1f77b4;stroke:#1f77b4;" x="218.695682" xlink:href="#m39cfc74d00" y="151.487951"/>
     <use style="fill:#1f77b4;stroke:#1f77b4;" x="222.068636" xlink:href="#m39cfc74d00" y="151.860778"/>
     <use style="fill:#1f77b4;stroke:#1f77b4;" x="225.441591" xlink:href="#m39cfc74d00" y="153.15264"/>
     <use style="fill:#1f77b4;stroke:#1f77b4;" x="228.814545" xlink:href="#m39cfc74d00" y="155.034676"/>
     <use style="fill:#1f77b4;stroke:#1f77b4;" x="232.1875" xlink:href="#m39cfc74d00" y="155.456339"/>
     <use style="fill:#1f77b4;stroke:#1f77b4;" x="235.560455" xlink:href="#m39cfc74d00" y="155.815825"/>
     <use style="fill:#1f77b4;stroke:#1f77b4;" x="238.933409" xlink:href="#m39cfc74d00" y="155.767079"/>
     <use style="fill:#1f77b4;stroke:#1f77b4;" x="242.306364" xlink:href="#m39cfc74d00" y="157.452723"/>
     <use style="fill:#1f77b4;stroke:#1f77b4;" x="245.679318" xlink:href="#m39cfc74d00" y="158.767522"/>
     <use style="fill:#1f77b4;stroke:#1f77b4;" x="249.052273" xlink:href="#m39cfc74d00" y="159.955579"/>
     <use style="fill:#1f77b4;stroke:#1f77b4;" x="252.425227" xlink:href="#m39cfc74d00" y="163.664849"/>
     <use style="fill:#1f77b4;stroke:#1f77b4;" x="255.798182" xlink:href="#m39cfc74d00" y="166.642354"/>
     <use style="fill:#1f77b4;stroke:#1f77b4;" x="259.171136" xlink:href="#m39cfc74d00" y="166.700729"/>
     <use style="fill:#1f77b4;stroke:#1f77b4;" x="262.544091" xlink:href="#m39cfc74d00" y="166.03282"/>
     <use style="fill:#1f77b4;stroke:#1f77b4;" x="265.917045" xlink:href="#m39cfc74d00" y="167.436944"/>
     <use style="fill:#1f77b4;stroke:#1f77b4;" x="269.29" xlink:href="#m39cfc74d00" y="168.517674"/>
     <use style="fill:#1f77b4;stroke:#1f77b4;" x="272.662955" xlink:href="#m39cfc74d00" y="168.431577"/>
     <use style="fill:#1f77b4;stroke:#1f77b4;" x="276.035909" xlink:href="#m39cfc74d00" y="170.091448"/>
     <use style="fill:#1f77b4;stroke:#1f77b4;" x="279.408864" xlink:href="#m39cfc74d00" y="173.310859"/>
     <use style="fill:#1f77b4;stroke:#1f77b4;" x="282.781818" xlink:href="#m39cfc74d00" y="177.532571"/>
     <use style="fill:#1f77b4;stroke:#1f77b4;" x="286.154773" xlink:href="#m39cfc74d00" y="178.068857"/>
     <use style="fill:#1f77b4;stroke:#1f77b4;" x="289.527727" xlink:href="#m39cfc74d00" y="178.879925"/>
     <use style="fill:#1f77b4;stroke:#1f77b4;" x="292.900682" xlink:href="#m39cfc74d00" y="180.27735"/>
     <use style="fill:#1f77b4;stroke:#1f77b4;" x="296.273636" xlink:href="#m39cfc74d00" y="183.146924"/>
     <use style="fill:#1f77b4;stroke:#1f77b4;" x="299.646591" xlink:href="#m39cfc74d00" y="185.135009"/>
     <use style="fill:#1f77b4;stroke:#1f77b4;" x="303.019545" xlink:href="#m39cfc74d00" y="185.090898"/>
     <use style="fill:#1f77b4;stroke:#1f77b4;" x="306.3925" xlink:href="#m39cfc74d00" y="185.528797"/>
     <use style="fill:#1f77b4;stroke:#1f77b4;" x="309.765455" xlink:href="#m39cfc74d00" y="185.453009"/>
     <use style="fill:#1f77b4;stroke:#1f77b4;" x="313.138409" xlink:href="#m39cfc74d00" y="186.37432"/>
     <use style="fill:#1f77b4;stroke:#1f77b4;" x="316.511364" xlink:href="#m39cfc74d00" y="189.636316"/>
     <use style="fill:#1f77b4;stroke:#1f77b4;" x="319.884318" xlink:href="#m39cfc74d00" y="192.03054"/>
     <use style="fill:#1f77b4;stroke:#1f77b4;" x="323.257273" xlink:href="#m39cfc74d00" y="192.116801"/>
     <use style="fill:#1f77b4;stroke:#1f77b4;" x="326.630227" xlink:href="#m39cfc74d00" y="194.17224"/>
     <use style="fill:#1f77b4;stroke:#1f77b4;" x="330.003182" xlink:href="#m39cfc74d00" y="197.447625"/>
     <use style="fill:#1f77b4;stroke:#1f77b4;" x="333.376136" xlink:href="#m39cfc74d00" y="200.213173"/>
     <use style="fill:#1f77b4;stroke:#1f77b4;" x="336.749091" xlink:href="#m39cfc74d00" y="201.936082"/>
     <use style="fill:#1f77b4;stroke:#1f77b4;" x="340.122045" xlink:href="#m39cfc74d00" y="203.828915"/>
     <use style="fill:#1f77b4;stroke:#1f77b4;" x="343.495" xlink:href="#m39cfc74d00" y="204.816786"/>
     <use style="fill:#1f77b4;stroke:#1f77b4;" x="346.867955" xlink:href="#m39cfc74d00" y="205.504732"/>
     <use style="fill:#1f77b4;stroke:#1f77b4;" x="350.240909" xlink:href="#m39cfc74d00" y="208.328821"/>
     <use style="fill:#1f77b4;stroke:#1f77b4;" x="353.613864" xlink:href="#m39cfc74d00" y="209.130643"/>
     <use style="fill:#1f77b4;stroke:#1f77b4;" x="356.986818" xlink:href="#m39cfc74d00" y="210.15807"/>
     <use style="fill:#1f77b4;stroke:#1f77b4;" x="360.359773" xlink:href="#m39cfc74d00" y="211.8472"/>
     <use style="fill:#1f77b4;stroke:#1f77b4;" x="363.732727" xlink:href="#m39cfc74d00" y="213.074883"/>
     <use style="fill:#1f77b4;stroke:#1f77b4;" x="367.105682" xlink:href="#m39cfc74d00" y="215.320747"/>
     <use style="fill:#1f77b4;stroke:#1f77b4;" x="370.478636" xlink:href="#m39cfc74d00" y="217.548134"/>
     <use style="fill:#1f77b4;stroke:#1f77b4;" x="373.851591" xlink:href="#m39cfc74d00" y="217.975684"/>
     <use style="fill:#1f77b4;stroke:#1f77b4;" x="377.224545" xlink:href="#m39cfc74d00" y="219.438021"/>
     <use style="fill:#1f77b4;stroke:#1f77b4;" x="380.5975" xlink:href="#m39cfc74d00" y="220.727554"/>
     <use style="fill:#1f77b4;stroke:#1f77b4;" x="383.970455" xlink:href="#m39cfc74d00" y="222.632243"/>
     <use style="fill:#1f77b4;stroke:#1f77b4;" x="387.343409" xlink:href="#m39cfc74d00" y="225.682185"/>
     <use style="fill:#1f77b4;stroke:#1f77b4;" x="390.716364" xlink:href="#m39cfc74d00" y="227.253936"/>
     <use style="fill:#1f77b4;stroke:#1f77b4;" x="394.089318" xlink:href="#m39cfc74d00" y="230.058277"/>
     <use style="fill:#1f77b4;stroke:#1f77b4;" x="397.462273" xlink:href="#m39cfc74d00" y="230.938608"/>
     <use style="fill:#1f77b4;stroke:#1f77b4;" x="400.835227" xlink:href="#m39cfc74d00" y="233.457539"/>
    </g>
   </g>
   <g id="patch_3">
    <path d="M 46.675 257.2 
L 46.675 26.8 
" style="fill:none;stroke:#000000;stroke-linecap:square;stroke-linejoin:miter;stroke-width:0.8;"/>
   </g>
   <g id="patch_4">
    <path d="M 417.7 257.2 
L 417.7 26.8 
" style="fill:none;stroke:#000000;stroke-linecap:square;stroke-linejoin:miter;stroke-width:0.8;"/>
   </g>
   <g id="patch_5">
    <path d="M 46.675 257.2 
L 417.7 257.2 
" style="fill:none;stroke:#000000;stroke-linecap:square;stroke-linejoin:miter;stroke-width:0.8;"/>
   </g>
   <g id="patch_6">
    <path d="M 46.675 26.8 
L 417.7 26.8 
" style="fill:none;stroke:#000000;stroke-linecap:square;stroke-linejoin:miter;stroke-width:0.8;"/>
   </g>
   <g id="text_14">
    <!-- Autocorrelation -->
    <defs>
     <path d="M 34.1875 63.1875 
L 20.796875 26.90625 
L 47.609375 26.90625 
z
M 28.609375 72.90625 
L 39.796875 72.90625 
L 67.578125 0 
L 57.328125 0 
L 50.6875 18.703125 
L 17.828125 18.703125 
L 11.1875 0 
L 0.78125 0 
z
" id="DejaVuSans-41"/>
     <path d="M 8.5 21.578125 
L 8.5 54.6875 
L 17.484375 54.6875 
L 17.484375 21.921875 
Q 17.484375 14.15625 20.5 10.265625 
Q 23.53125 6.390625 29.59375 6.390625 
Q 36.859375 6.390625 41.078125 11.03125 
Q 45.3125 15.671875 45.3125 23.6875 
L 45.3125 54.6875 
L 54.296875 54.6875 
L 54.296875 0 
L 45.3125 0 
L 45.3125 8.40625 
Q 42.046875 3.421875 37.71875 1 
Q 33.40625 -1.421875 27.6875 -1.421875 
Q 18.265625 -1.421875 13.375 4.4375 
Q 8.5 10.296875 8.5 21.578125 
z
M 31.109375 56 
z
" id="DejaVuSans-75"/>
     <path d="M 18.3125 70.21875 
L 18.3125 54.6875 
L 36.8125 54.6875 
L 36.8125 47.703125 
L 18.3125 47.703125 
L 18.3125 18.015625 
Q 18.3125 11.328125 20.140625 9.421875 
Q 21.96875 7.515625 27.59375 7.515625 
L 36.8125 7.515625 
L 36.8125 0 
L 27.59375 0 
Q 17.1875 0 13.234375 3.875 
Q 9.28125 7.765625 9.28125 18.015625 
L 9.28125 47.703125 
L 2.6875 47.703125 
L 2.6875 54.6875 
L 9.28125 54.6875 
L 9.28125 70.21875 
z
" id="DejaVuSans-74"/>
     <path d="M 30.609375 48.390625 
Q 23.390625 48.390625 19.1875 42.75 
Q 14.984375 37.109375 14.984375 27.296875 
Q 14.984375 17.484375 19.15625 11.84375 
Q 23.34375 6.203125 30.609375 6.203125 
Q 37.796875 6.203125 41.984375 11.859375 
Q 46.1875 17.53125 46.1875 27.296875 
Q 46.1875 37.015625 41.984375 42.703125 
Q 37.796875 48.390625 30.609375 48.390625 
z
M 30.609375 56 
Q 42.328125 56 49.015625 48.375 
Q 55.71875 40.765625 55.71875 27.296875 
Q 55.71875 13.875 49.015625 6.21875 
Q 42.328125 -1.421875 30.609375 -1.421875 
Q 18.84375 -1.421875 12.171875 6.21875 
Q 5.515625 13.875 5.515625 27.296875 
Q 5.515625 40.765625 12.171875 48.375 
Q 18.84375 56 30.609375 56 
z
" id="DejaVuSans-6f"/>
     <path d="M 48.78125 52.59375 
L 48.78125 44.1875 
Q 44.96875 46.296875 41.140625 47.34375 
Q 37.3125 48.390625 33.40625 48.390625 
Q 24.65625 48.390625 19.8125 42.84375 
Q 14.984375 37.3125 14.984375 27.296875 
Q 14.984375 17.28125 19.8125 11.734375 
Q 24.65625 6.203125 33.40625 6.203125 
Q 37.3125 6.203125 41.140625 7.25 
Q 44.96875 8.296875 48.78125 10.40625 
L 48.78125 2.09375 
Q 45.015625 0.34375 40.984375 -0.53125 
Q 36.96875 -1.421875 32.421875 -1.421875 
Q 20.0625 -1.421875 12.78125 6.34375 
Q 5.515625 14.109375 5.515625 27.296875 
Q 5.515625 40.671875 12.859375 48.328125 
Q 20.21875 56 33.015625 56 
Q 37.15625 56 41.109375 55.140625 
Q 45.0625 54.296875 48.78125 52.59375 
z
" id="DejaVuSans-63"/>
     <path d="M 41.109375 46.296875 
Q 39.59375 47.171875 37.8125 47.578125 
Q 36.03125 48 33.890625 48 
Q 26.265625 48 22.1875 43.046875 
Q 18.109375 38.09375 18.109375 28.8125 
L 18.109375 0 
L 9.078125 0 
L 9.078125 54.6875 
L 18.109375 54.6875 
L 18.109375 46.1875 
Q 20.953125 51.171875 25.484375 53.578125 
Q 30.03125 56 36.53125 56 
Q 37.453125 56 38.578125 55.875 
Q 39.703125 55.765625 41.0625 55.515625 
z
" id="DejaVuSans-72"/>
     <path d="M 56.203125 29.59375 
L 56.203125 25.203125 
L 14.890625 25.203125 
Q 15.484375 15.921875 20.484375 11.0625 
Q 25.484375 6.203125 34.421875 6.203125 
Q 39.59375 6.203125 44.453125 7.46875 
Q 49.3125 8.734375 54.109375 11.28125 
L 54.109375 2.78125 
Q 49.265625 0.734375 44.1875 -0.34375 
Q 39.109375 -1.421875 33.890625 -1.421875 
Q 20.796875 -1.421875 13.15625 6.1875 
Q 5.515625 13.8125 5.515625 26.8125 
Q 5.515625 40.234375 12.765625 48.109375 
Q 20.015625 56 32.328125 56 
Q 43.359375 56 49.78125 48.890625 
Q 56.203125 41.796875 56.203125 29.59375 
z
M 47.21875 32.234375 
Q 47.125 39.59375 43.09375 43.984375 
Q 39.0625 48.390625 32.421875 48.390625 
Q 24.90625 48.390625 20.390625 44.140625 
Q 15.875 39.890625 15.1875 32.171875 
z
" id="DejaVuSans-65"/>
     <path d="M 9.421875 75.984375 
L 18.40625 75.984375 
L 18.40625 0 
L 9.421875 0 
z
" id="DejaVuSans-6c"/>
     <path d="M 34.28125 27.484375 
Q 23.390625 27.484375 19.1875 25 
Q 14.984375 22.515625 14.984375 16.5 
Q 14.984375 11.71875 18.140625 8.90625 
Q 21.296875 6.109375 26.703125 6.109375 
Q 34.1875 6.109375 38.703125 11.40625 
Q 43.21875 16.703125 43.21875 25.484375 
L 43.21875 27.484375 
z
M 52.203125 31.203125 
L 52.203125 0 
L 43.21875 0 
L 43.21875 8.296875 
Q 40.140625 3.328125 35.546875 0.953125 
Q 30.953125 -1.421875 24.3125 -1.421875 
Q 15.921875 -1.421875 10.953125 3.296875 
Q 6 8.015625 6 15.921875 
Q 6 25.140625 12.171875 29.828125 
Q 18.359375 34.515625 30.609375 34.515625 
L 43.21875 34.515625 
L 43.21875 35.40625 
Q 43.21875 41.609375 39.140625 45 
Q 35.0625 48.390625 27.6875 48.390625 
Q 23 48.390625 18.546875 47.265625 
Q 14.109375 46.140625 10.015625 43.890625 
L 10.015625 52.203125 
Q 14.9375 54.109375 19.578125 55.046875 
Q 24.21875 56 28.609375 56 
Q 40.484375 56 46.34375 49.84375 
Q 52.203125 43.703125 52.203125 31.203125 
z
" id="DejaVuSans-61"/>
     <path d="M 9.421875 54.6875 
L 18.40625 54.6875 
L 18.40625 0 
L 9.421875 0 
z
M 9.421875 75.984375 
L 18.40625 75.984375 
L 18.40625 64.59375 
L 9.421875 64.59375 
z
" id="DejaVuSans-69"/>
     <path d="M 54.890625 33.015625 
L 54.890625 0 
L 45.90625 0 
L 45.90625 32.71875 
Q 45.90625 40.484375 42.875 44.328125 
Q 39.84375 48.1875 33.796875 48.1875 
Q 26.515625 48.1875 22.3125 43.546875 
Q 18.109375 38.921875 18.109375 30.90625 
L 18.109375 0 
L 9.078125 0 
L 9.078125 54.6875 
L 18.109375 54.6875 
L 18.109375 46.1875 
Q 21.34375 51.125 25.703125 53.5625 
Q 30.078125 56 35.796875 56 
Q 45.21875 56 50.046875 50.171875 
Q 54.890625 44.34375 54.890625 33.015625 
z
" id="DejaVuSans-6e"/>
    </defs>
    <g transform="translate(185.828125 20.8)scale(0.12 -0.12)">
     <use xlink:href="#DejaVuSans-41"/>
     <use x="68.408203" xlink:href="#DejaVuSans-75"/>
     <use x="131.787109" xlink:href="#DejaVuSans-74"/>
     <use x="170.996094" xlink:href="#DejaVuSans-6f"/>
     <use x="232.177734" xlink:href="#DejaVuSans-63"/>
     <use x="287.158203" xlink:href="#DejaVuSans-6f"/>
     <use x="348.339844" xlink:href="#DejaVuSans-72"/>
     <use x="389.4375" xlink:href="#DejaVuSans-72"/>
     <use x="430.519531" xlink:href="#DejaVuSans-65"/>
     <use x="492.042969" xlink:href="#DejaVuSans-6c"/>
     <use x="519.826172" xlink:href="#DejaVuSans-61"/>
     <use x="581.105469" xlink:href="#DejaVuSans-74"/>
     <use x="620.314453" xlink:href="#DejaVuSans-69"/>
     <use x="648.097656" xlink:href="#DejaVuSans-6f"/>
     <use x="709.279297" xlink:href="#DejaVuSans-6e"/>
    </g>
   </g>
  </g>
 </g>
 <defs>
  <clipPath id="p3b67b9b344">
   <rect height="230.4" width="371.025" x="46.675" y="26.8"/>
  </clipPath>
 </defs>
</svg>
